<svg width="2784" height="1359" viewBox="0 0 2784 1359" fill="none" xmlns="http://www.w3.org/2000/svg">
<path d="M1237.9 700.7C1237.9 795.9 1186.9 838.81 1113.2 838.81C1048.84 838.81 996.54 799.93 996.54 716.81V334.65H795.42V746.29C795.42 927.29 910.73 1023.85 1046.16 1023.85C1134.65 1023.85 1201.69 991.67 1237.9 942.06V1005.06H1439V334.65H1237.9V700.7Z" fill="black"/>
<path d="M1716.4 334.65H1515.27V1005.07H1716.4V334.65Z" fill="black"/>
<path d="M2301.19 468.74V334.65H1791.67V522.37H2031.68L1778.26 870.99V1005.08H2314.6V817.36H2047.77L2301.19 468.74Z" fill="black"/>
<path d="M2558.28 453.33V334.59H2358.16V1001.66H2558.28V700.14C2558.28 568.06 2675.69 534.71 2758.4 548.05V321.24C2674.35 321.24 2585 363.94 2558.28 453.33Z" fill="black"/>
<path d="M388.67 306.68C333.072 306.687 278.217 319.459 228.334 344.011C178.45 368.563 134.869 404.24 100.95 448.292C67.0297 492.344 43.6765 543.596 32.6894 598.098C21.7024 652.6 23.3749 708.897 37.578 762.65C51.7811 816.404 78.1357 866.179 114.611 908.14C151.086 950.101 196.708 983.128 247.961 1004.68C299.214 1026.22 354.73 1035.72 410.23 1032.42C465.731 1029.13 519.735 1013.14 568.08 985.68L663.16 1164.41L751.87 1331.15V669.87C751.87 622.174 742.476 574.946 724.223 530.881C705.97 486.816 679.217 446.778 645.491 413.052C611.764 379.327 571.725 352.575 527.66 334.323C483.594 316.072 436.366 306.679 388.67 306.68ZM388.67 840.1C354.999 840.102 322.083 830.119 294.086 811.414C266.089 792.708 244.267 766.12 231.381 735.013C218.494 703.905 215.122 669.674 221.691 636.65C228.259 603.626 244.473 573.291 268.282 549.482C292.091 525.673 322.426 509.459 355.45 502.891C388.475 496.322 422.705 499.694 453.813 512.581C484.92 525.467 511.508 547.289 530.214 575.286C548.919 603.283 558.902 636.199 558.9 669.87C558.967 692.244 554.61 714.41 546.079 735.094C537.548 755.777 525.012 774.57 509.191 790.391C493.37 806.212 474.577 818.748 453.894 827.279C433.21 835.81 411.044 840.167 388.67 840.1Z" fill="black"/>
<path d="M1608.71 30.14H1608.7C1539.75 30.14 1483.86 86.0328 1483.86 154.98V154.99C1483.86 223.937 1539.75 279.83 1608.7 279.83H1608.71C1677.66 279.83 1733.55 223.937 1733.55 154.99V154.98C1733.55 86.0328 1677.66 30.14 1608.71 30.14Z" fill="black"/>
</svg>
